<svg width="24" height="23" viewBox="0 0 24 23" fill="none" xmlns="http://www.w3.org/2000/svg">
<path d="M8.57144 9.2857C10.7017 9.2857 12.4286 7.5588 12.4286 5.42855C12.4286 3.29831 10.7017 1.57141 8.57144 1.57141C6.4412 1.57141 4.71429 3.29831 4.71429 5.42855C4.71429 7.5588 6.4412 9.2857 8.57144 9.2857Z" stroke="white" stroke-width="1.6" stroke-linecap="round" stroke-linejoin="round"/>
<path d="M16.2857 22.1428H0.857147V20.4285C0.857147 18.3826 1.6699 16.4204 3.11661 14.9737C4.56332 13.527 6.52548 12.7142 8.57143 12.7142C10.6174 12.7142 12.5795 13.527 14.0263 14.9737C15.473 16.4204 16.2857 18.3826 16.2857 20.4285V22.1428Z" stroke="white" stroke-width="1.6" stroke-linecap="round" stroke-linejoin="round"/>
<path d="M15.4286 1.57141C16.4516 1.57141 17.4326 1.97779 18.156 2.70114C18.8794 3.4245 19.2857 4.40558 19.2857 5.42855C19.2857 6.45153 18.8794 7.43261 18.156 8.15597C17.4326 8.87932 16.4516 9.2857 15.4286 9.2857" stroke="white" stroke-width="1.6" stroke-linecap="round" stroke-linejoin="round"/>
<path d="M18.1714 13.04C19.6317 13.5956 20.8889 14.5814 21.7767 15.8671C22.6644 17.1527 23.1408 18.6777 23.1429 20.24V22.1429H20.5714" stroke="white" stroke-width="1.6" stroke-linecap="round" stroke-linejoin="round"/>
</svg>
