<svg width="24" height="24" viewBox="0 0 24 24" fill="none" xmlns="http://www.w3.org/2000/svg">
<path d="M12 14.5714V23.1428" stroke="white" stroke-width="1.6" stroke-linecap="round" stroke-linejoin="round"/>
<path d="M7.71429 23.1429H16.2857" stroke="white" stroke-width="1.6" stroke-linecap="round" stroke-linejoin="round"/>
<path d="M6 9.42855C4.63603 9.42855 3.32793 8.88672 2.36346 7.92225C1.39898 6.95777 0.857147 5.64967 0.857147 4.2857V2.57141H6.85715V9.42855H6Z" stroke="white" stroke-width="1.6" stroke-linecap="round" stroke-linejoin="round"/>
<path d="M18 9.42855C19.364 9.42855 20.6721 8.88672 21.6365 7.92225C22.601 6.95777 23.1429 5.64967 23.1429 4.2857V2.57141H17.1429V9.42855H18Z" stroke="white" stroke-width="1.6" stroke-linecap="round" stroke-linejoin="round"/>
<path d="M17.1429 9.42861C17.1429 10.7926 16.601 12.1007 15.6366 13.0652C14.6721 14.0296 13.364 14.5715 12 14.5715C10.636 14.5715 9.32793 14.0296 8.36346 13.0652C7.39898 12.1007 6.85715 10.7926 6.85715 9.42861V0.857178H17.1429V9.42861Z" stroke="white" stroke-width="1.6" stroke-linecap="round" stroke-linejoin="round"/>
</svg>
