<svg width="24" height="24" viewBox="0 0 24 24" fill="none" xmlns="http://www.w3.org/2000/svg">
<path d="M16.2 10.8C14.5453 10.8 13.2 9.45474 13.2 7.80005C13.2 6.14536 14.5453 4.80005 16.2 4.80005C17.8547 4.80005 19.2 6.14536 19.2 7.80005C19.2 9.45474 17.8547 10.8 16.2 10.8ZM16.2 6.00005C15.2063 6.00005 14.4 6.8063 14.4 7.80005C14.4 8.7938 15.2063 9.60005 16.2 9.60005C17.1938 9.60005 18 8.7938 18 7.80005C18 6.8063 17.1938 6.00005 16.2 6.00005Z" fill="white"/>
<path d="M0.600004 24C0.445317 24 0.29063 23.9391 0.173442 23.8266C0.00937983 23.6625 -0.0468701 23.4188 0.0328173 23.1985C1.87969 18.1219 3.82032 15.5485 5.80313 15.5485C6.45469 15.5485 7.06875 15.8297 7.62187 16.3828C8.49375 17.2547 8.52656 18.1266 8.4 18.7031C8.00156 20.5125 5.44219 22.2844 0.806254 23.9719L0.600004 24ZM5.80781 16.7438C5.2125 16.7438 4.51406 17.2641 3.7875 18.2485C3.07032 19.2141 2.34844 20.5969 1.64063 22.3594C3.24375 21.7172 4.52813 21.061 5.47969 20.4094C6.75938 19.5281 7.13906 18.8485 7.23281 18.436C7.32656 18.0235 7.17656 17.625 6.77813 17.2266C6.45469 16.8985 6.13594 16.7438 5.80781 16.7438Z" fill="white"/>
<path d="M23.4 0C20.2875 0 17.5125 0.529688 15.15 1.57031C13.2047 2.42813 11.5406 3.63281 10.2 5.15156C9.95156 5.43281 9.71718 5.72344 9.50625 6.00938C8.47031 6.07969 7.41562 6.4875 6.35625 7.23281C5.46094 7.86094 4.56562 8.73281 3.68437 9.82031C2.20781 11.6484 1.30312 13.4531 1.26093 13.5281C1.12968 13.7906 1.20937 14.1094 1.44375 14.2828C1.54687 14.3578 1.67343 14.3953 1.79531 14.3953C1.95 14.3953 2.1 14.3391 2.21718 14.2219C2.22187 14.2172 2.79843 13.65 3.77343 13.0969C4.57968 12.6422 5.82187 12.1031 7.32656 12.0094C7.70625 12.9844 8.79375 14.1469 9.31875 14.6672C9.84375 15.1875 11.0062 16.275 11.9766 16.6594C11.8828 18.1641 11.3437 19.4063 10.8891 20.2125C10.3359 21.1922 9.77343 21.7641 9.76875 21.7688C9.5625 21.975 9.53437 22.3031 9.70781 22.5422C9.825 22.7016 10.0078 22.7906 10.1953 22.7906L10.4625 22.725C10.5375 22.6875 12.3422 21.7781 14.1703 20.3063C15.2578 19.4297 16.1297 18.5297 16.7578 17.6344C17.5031 16.575 17.9109 15.5203 17.9812 14.4844C18.2672 14.2688 18.5531 14.0391 18.8391 13.7906C20.3578 12.45 21.5625 10.7859 22.4203 8.84063C23.4609 6.48281 23.9906 3.70781 23.9906 0.590625V0H23.4ZM3.73125 11.7703C4.875 10.1109 6.62343 8.05313 8.59218 7.40625C7.81406 8.77031 7.41093 10.0219 7.26562 10.8188C5.87343 10.9031 4.67343 11.3063 3.73125 11.7703ZM12.2344 20.2688C12.6984 19.3219 13.1016 18.1266 13.1859 16.7344C13.9781 16.5891 15.2344 16.1859 16.5984 15.4078C15.9469 17.3766 13.8891 19.125 12.2344 20.2688ZM18.0516 12.9C15.5578 15.1031 12.9703 15.6 12.6 15.6C12.6 15.6 12.3516 15.5953 11.6906 15.1266C11.2312 14.8031 10.6922 14.3391 10.1766 13.8234C9.66093 13.3125 9.20156 12.7734 8.87343 12.3094C8.40468 11.6484 8.4 11.4 8.4 11.4C8.4 11.0297 8.89687 8.44219 11.1 5.94844C13.7344 2.9625 17.7656 1.33125 22.7906 1.20938C22.6734 6.23438 21.0422 10.2656 18.0516 12.9Z" fill="white"/>
</svg>
