<svg width="362" height="304" viewBox="0 0 362 304" fill="none" xmlns="http://www.w3.org/2000/svg">
<path d="M85.4449 161.299C96.2063 155.747 107.5 149.416 118.147 142.989C118.227 142.952 118.318 142.945 118.403 142.97C118.488 142.995 118.561 143.05 118.608 143.125C118.655 143.2 118.672 143.289 118.658 143.377C118.643 143.464 118.597 143.543 118.528 143.598C107.861 150.024 96.5486 156.375 85.7871 161.927C85.7058 161.956 85.6165 161.956 85.5354 161.926C85.4543 161.895 85.3868 161.836 85.3453 161.76C85.3039 161.684 85.2911 161.596 85.3094 161.511C85.3276 161.427 85.3757 161.351 85.4449 161.299Z" fill="#753EEC"/>
<path d="M151.002 79.5433C139.777 67.4271 124.771 59.4809 108.441 57.0057C92.1103 54.5306 75.4235 57.6731 61.1122 65.9189C46.8009 74.1646 35.7132 87.0249 29.6643 102.394C23.6154 117.764 22.9639 134.731 27.8163 150.519C-15.4765 185.712 -7.24384 200.562 45.6126 180.313C52.9756 187.847 61.8944 193.683 71.7462 197.413C81.598 201.144 92.1454 202.679 102.652 201.912C102.705 201.924 102.76 201.924 102.813 201.912C102.866 201.9 102.916 201.877 102.959 201.843C103.001 201.809 103.036 201.766 103.059 201.717C103.083 201.668 103.095 201.614 103.095 201.56C103.095 201.505 103.083 201.452 103.059 201.403C103.036 201.354 103.001 201.311 102.959 201.277C102.916 201.243 102.866 201.219 102.813 201.207C102.76 201.195 102.705 201.196 102.652 201.208C92.3063 201.954 81.922 200.447 72.2155 196.791C62.509 193.134 53.7115 187.415 46.4301 180.028C51.4876 178.126 56.8873 175.826 62.5532 173.278C62.606 173.267 62.6556 173.244 62.6984 173.212C62.7413 173.179 62.7763 173.137 62.8009 173.089C62.8255 173.042 62.8392 172.989 62.8408 172.935C62.8424 172.881 62.8319 172.828 62.8102 172.778C62.7885 172.729 62.756 172.685 62.7152 172.65C62.6743 172.615 62.6262 172.59 62.5742 172.576C62.5222 172.561 62.4678 172.559 62.4148 172.569C62.3618 172.578 62.3117 172.6 62.268 172.631C56.5007 175.166 51.0376 177.448 45.8787 179.476C32.6792 166.066 25.3124 147.984 25.3826 129.167C25.4687 111.807 31.8032 95.0572 43.2271 81.9843C54.6509 68.9113 70.4001 60.389 87.5928 57.9767C104.785 55.5645 122.272 59.4237 136.852 68.8481C151.433 78.2725 162.132 92.632 166.992 109.299C161.098 114.09 154.367 119.148 146.876 124.395C146.828 124.417 146.786 124.449 146.751 124.489C146.717 124.529 146.692 124.575 146.677 124.626C146.663 124.677 146.66 124.73 146.668 124.782C146.677 124.834 146.696 124.883 146.726 124.927C146.755 124.971 146.794 125.007 146.839 125.034C146.884 125.061 146.935 125.078 146.987 125.084C147.04 125.089 147.093 125.083 147.142 125.066C147.192 125.049 147.238 125.021 147.276 124.985C154.71 119.775 161.364 114.775 167.201 110.059C171.721 126.54 170.252 144.088 163.056 159.588C163.016 159.677 163.012 159.777 163.046 159.868C163.08 159.959 163.149 160.033 163.237 160.073C163.325 160.114 163.426 160.117 163.517 160.083C163.608 160.049 163.682 159.981 163.722 159.893C171.019 144.135 172.468 126.294 167.81 109.565C210.266 74.9992 202.242 60.245 151.002 79.5433ZM1.29304 185.807C-1.84412 180.37 8.13775 167.46 28.0445 151.261C31.438 161.975 37.2991 171.744 45.1562 179.78C21.0476 188.888 4.50625 191.34 1.29304 185.807ZM167.677 108.804C164.539 98.1485 159.012 88.3488 151.516 80.1517C201.501 61.3478 209.163 74.8471 167.677 108.804Z" fill="#753EEC"/>
<path d="M292.878 122.76L292.327 118.957C292.21 118.212 292.261 117.45 292.474 116.727C292.688 116.003 293.06 115.336 293.562 114.774C289.418 104.64 280.691 110.572 282.155 119.489C281.869 119.87 281.812 121.391 279.759 119.09C276.679 115.668 272.743 121.353 278.922 125.821C281.375 135.631 278.922 136.126 276.679 134.091C278.146 135.518 279.695 136.857 281.318 138.103C282.231 138.861 283.305 139.402 284.457 139.685C285.61 139.968 286.812 139.986 287.973 139.738C287.73 138.195 287.73 136.623 287.973 135.08C291.357 135.822 295.711 135.08 295.578 126.619C294.855 126.234 294.234 125.684 293.765 125.013C293.296 124.342 292.992 123.57 292.878 122.76Z" fill="#E6E7E8"/>
<path d="M352.769 70.4546C355.678 60.3396 353.682 52.0499 351.191 62.6021C352.465 53.647 350.925 49.4641 348.834 57.6207C348.339 59.522 347.845 61.2142 347.293 62.7162C347.357 61.5002 347.357 60.2817 347.293 59.0657C346.818 52.0689 345.164 52.5442 344.042 58.5714C343.536 61.3972 342.863 64.1907 342.027 66.9371C341.833 66.4583 341.604 65.9943 341.342 65.5492C337.54 58.7425 336.209 58.9136 337.787 66.709C339.118 73.2685 334.555 81.6723 334.555 81.6723C339.237 83.5685 343.262 86.7939 346.134 90.9507C346.134 90.9507 353.073 79.6569 354.728 71.9376C356.173 65.3781 353.682 68.3441 352.769 70.4546Z" fill="#E6E7E8"/>
<path d="M227.549 67.6408C226.903 66.4408 226.631 65.0744 226.77 63.7184C226.909 62.3625 227.452 61.0795 228.329 60.0356C231.409 56.347 235.554 50.8142 234.185 49.3122C232.055 47.0116 225.324 54.845 221.75 55.2823C220.476 55.4344 219.449 51.4797 219.24 50.1488C218.841 47.563 217.51 38.874 217.339 37.9994C216.255 30.0709 213.536 31.4209 213.536 38.4177C213.536 44.8821 213.536 49.1411 213.536 49.3692C212.301 45.4335 209.392 36.3072 209.163 35.5467C206.863 27.9415 204.429 29.6336 205.57 36.5164C206.654 43.0949 207.832 51.1184 207.832 51.1184C206.73 48.7798 204.961 44.8061 203.098 39.7106C200.341 32.2004 198.288 34.0067 199.581 40.9654C200.569 46.194 201.805 51.3466 202.376 53.2479C200.933 50.9427 199.662 48.5342 198.573 46.0419C195.436 38.6268 193.497 40.6612 195.227 47.6961C196.501 52.8106 197.584 55.3013 200.151 64.4656C201.349 68.7056 205.418 80.1705 208.954 85.5702C215.571 85.9314 227.283 79.0677 230.116 73.0976C230.192 72.9075 227.682 67.869 227.549 67.6408Z" fill="#E6E7E8"/>
<path d="M324.535 13.7577C321.6 13.9401 318.785 14.9887 316.446 16.771C314.107 18.5532 312.349 20.989 311.394 23.7704C310.439 26.5518 310.331 29.5538 311.082 32.3968C311.834 35.2398 313.411 37.7962 315.616 39.7425C317.82 41.6889 320.552 42.938 323.466 43.3317C326.38 43.7254 329.346 43.2461 331.988 41.9545C334.629 40.6628 336.829 38.6168 338.308 36.0751C339.787 33.5334 340.479 30.6103 340.296 27.6753C340.178 25.7256 339.676 23.8186 338.819 22.0633C337.962 20.308 336.767 18.739 335.303 17.4461C333.839 16.1533 332.134 15.162 330.286 14.5291C328.439 13.8962 326.484 13.634 324.535 13.7577ZM317.652 35.5467C317.063 35.367 316.54 35.0169 316.15 34.5406C315.759 34.0642 315.519 33.4829 315.458 32.87C315.398 32.2571 315.52 31.64 315.81 31.0966C316.1 30.5532 316.544 30.1078 317.087 29.8166C317.63 29.5254 318.247 29.4014 318.86 29.4603C319.473 29.5192 320.055 29.7584 320.532 30.1476C321.009 30.5368 321.361 31.0586 321.542 31.6473C321.723 32.2359 321.726 32.8651 321.55 33.4553C321.308 34.248 320.762 34.9129 320.032 35.3048C319.302 35.6967 318.446 35.7836 317.652 35.5467ZM327.387 26.8957C326.537 26.6264 325.785 26.1121 325.227 25.4172C324.668 24.7223 324.327 23.8778 324.247 22.9899C324.166 22.1019 324.35 21.21 324.775 20.4261C325.2 19.6422 325.846 19.0012 326.634 18.5837C327.422 18.1662 328.316 17.9907 329.203 18.0792C330.09 18.1678 330.931 18.5165 331.621 19.0815C332.311 19.6465 332.818 20.4027 333.08 21.2551C333.341 22.1075 333.345 23.0181 333.09 23.8727C332.919 24.4486 332.635 24.9847 332.254 25.4496C331.873 25.9145 331.403 26.2988 330.872 26.5802C330.341 26.8617 329.76 27.0345 329.161 27.0887C328.563 27.1428 327.959 27.0773 327.387 26.8957ZM329.763 37.1438C329.327 37.0127 328.961 36.7137 328.745 36.3125C328.529 35.9114 328.482 35.441 328.613 35.0048C328.744 34.5686 329.043 34.2024 329.444 33.9867C329.845 33.771 330.316 33.7234 330.752 33.8545C331.188 33.9806 331.556 34.2748 331.776 34.6723C331.995 35.0699 332.047 35.5383 331.921 35.9745C331.795 36.4107 331.501 36.7789 331.103 36.9982C330.706 37.2175 330.237 37.2699 329.801 37.1438H329.763Z" fill="#753EEC"/>
<path d="M131.19 99.564C124.196 100.394 117.495 102.856 111.626 106.751C110.314 102.036 93.1452 69.7705 94.5142 67.2418C97.0619 62.3364 110.922 80.5509 120.125 84.7148C129.327 88.8787 128.852 94.9629 131.19 99.564Z" fill="#E6E7E8"/>
<path d="M96.4726 167.003C91.9598 171.915 88.5785 177.756 86.5668 184.115C85.0458 182.575 47.666 167.745 47.571 164.075C47.4189 158.542 68.6565 164.436 78.5053 162.174C88.354 159.911 91.7764 164.779 96.4726 167.003Z" fill="#E6E7E8"/>
<path d="M210.95 71.824C210.77 68.4188 211.305 65.0137 212.519 61.8275C213.734 58.6414 215.603 55.7448 218.004 53.3242C218.072 53.2561 218.165 53.2179 218.261 53.2179C218.357 53.2179 218.45 53.2561 218.518 53.3242C218.586 53.3923 218.624 53.4846 218.624 53.5809C218.624 53.6772 218.586 53.7695 218.518 53.8376C216.181 56.1903 214.364 59.0062 213.181 62.104C211.999 65.2019 211.479 68.5129 211.654 71.824C211.666 71.877 211.667 71.9321 211.655 71.9852C211.643 72.0383 211.619 72.0881 211.585 72.1307C211.551 72.1734 211.508 72.2079 211.459 72.2316C211.41 72.2552 211.357 72.2675 211.302 72.2675C211.248 72.2675 211.194 72.2552 211.145 72.2316C211.096 72.2079 211.053 72.1734 211.019 72.1307C210.985 72.0881 210.962 72.0383 210.95 71.9852C210.938 71.9321 210.938 71.877 210.95 71.824Z" fill="#000001"/>
<path d="M107.633 243.988C107.615 243.895 107.56 243.813 107.482 243.759C107.404 243.706 107.308 243.686 107.215 243.702L102.214 244.577C101.06 244.776 99.8737 244.509 98.9152 243.836C97.9568 243.163 97.304 242.137 97.0998 240.983L96.2252 235.983C96.2076 235.887 96.1526 235.802 96.0723 235.747C95.9921 235.692 95.8932 235.671 95.7974 235.688C95.7016 235.706 95.6167 235.761 95.5615 235.841C95.5062 235.921 95.4851 236.02 95.5027 236.116L96.3963 241.117C96.4974 241.688 96.4846 242.275 96.3585 242.842C96.2325 243.409 95.9957 243.945 95.6619 244.42C95.328 244.895 94.9036 245.3 94.4129 245.611C93.9223 245.921 93.3751 246.132 92.8028 246.231L87.8024 247.125C87.7195 247.152 87.6494 247.209 87.6051 247.284C87.5608 247.36 87.5454 247.449 87.5616 247.535C87.5779 247.62 87.6247 247.698 87.6935 247.752C87.7622 247.806 87.8482 247.833 87.9355 247.828L92.9359 246.935C94.0903 246.736 95.2765 247.002 96.235 247.675C97.1935 248.349 97.8463 249.375 98.0505 250.528L98.9251 255.528C98.9427 255.624 98.9977 255.709 99.0779 255.764C99.1582 255.82 99.257 255.841 99.3529 255.823C99.4487 255.806 99.5335 255.751 99.5888 255.67C99.6441 255.59 99.6652 255.491 99.6476 255.395L98.7539 250.395C98.555 249.241 98.8214 248.054 99.4949 247.096C100.168 246.137 101.194 245.485 102.347 245.28L107.348 244.406C107.441 244.387 107.523 244.333 107.576 244.255C107.629 244.177 107.65 244.081 107.633 243.988ZM98.1265 248.608C97.7503 248.013 97.2587 247.499 96.6807 247.098C96.1026 246.696 95.45 246.414 94.7612 246.269C95.3598 245.899 95.8773 245.412 96.2825 244.837C96.6876 244.262 96.9722 243.611 97.1188 242.923C97.4887 243.519 97.9761 244.034 98.5514 244.436C99.1267 244.838 99.7779 245.119 100.465 245.261C99.8571 245.622 99.3314 246.106 98.9221 246.683C98.5127 247.259 98.2288 247.915 98.0885 248.608H98.1265Z" fill="#753EEC"/>
<path d="M176.042 27.0289L172.525 27.6564C171.736 27.7893 170.927 27.6065 170.273 27.1475C169.618 26.6885 169.17 25.9902 169.026 25.2037L168.399 21.6672C168.371 21.5843 168.315 21.5142 168.239 21.4699C168.164 21.4257 168.075 21.4102 167.989 21.4265C167.903 21.4427 167.826 21.4896 167.772 21.5583C167.718 21.627 167.691 21.713 167.696 21.8003L168.323 25.3178C168.461 26.1069 168.28 26.9185 167.82 27.5745C167.361 28.2304 166.659 28.677 165.87 28.8162L162.353 29.4436C162.3 29.4434 162.248 29.4546 162.201 29.4764C162.153 29.4983 162.111 29.5303 162.077 29.5701C162.043 29.61 162.018 29.6568 162.003 29.7074C161.989 29.7579 161.986 29.8109 161.995 29.8627C162.003 29.9145 162.023 29.9638 162.052 30.0072C162.081 30.0507 162.12 30.0872 162.165 30.1143C162.21 30.1414 162.26 30.1583 162.312 30.164C162.364 30.1696 162.417 30.1639 162.467 30.1471L166.003 29.5196C166.403 29.4376 166.814 29.4377 167.213 29.5198C167.613 29.602 167.991 29.7645 168.325 29.9975C168.66 30.2305 168.943 30.5291 169.159 30.8752C169.374 31.2212 169.517 31.6074 169.578 32.0104L170.205 35.5468C170.233 35.6297 170.29 35.6998 170.365 35.7441C170.44 35.7884 170.529 35.8038 170.615 35.7876C170.701 35.7713 170.778 35.7245 170.832 35.6557C170.886 35.587 170.913 35.501 170.909 35.4137L170.3 31.8773C170.229 31.4888 170.236 31.0901 170.32 30.7042C170.404 30.3183 170.564 29.953 170.791 29.6294C171.017 29.3058 171.305 29.0303 171.639 28.8189C171.972 28.6075 172.345 28.4644 172.734 28.3979L176.27 27.7704C176.369 27.7402 176.451 27.6721 176.499 27.5812C176.547 27.4903 176.557 27.3839 176.527 27.2856C176.497 27.1873 176.429 27.105 176.338 27.0569C176.247 27.0087 176.141 26.9987 176.042 27.0289ZM169.578 30.3372C169.077 29.6369 168.353 29.1275 167.524 28.8922C168.225 28.3911 168.734 27.6671 168.969 26.8388C169.471 27.5391 170.194 28.0485 171.023 28.2838C170.323 28.7849 169.813 29.5089 169.578 30.3372Z" fill="#753EEC"/>
<path d="M361.61 133.845L352.864 135.385C351.832 135.577 350.771 135.564 349.744 135.346C348.716 135.128 347.742 134.709 346.877 134.114C346.011 133.519 345.272 132.758 344.7 131.877C344.129 130.996 343.737 130.01 343.548 128.977L342.008 120.231C342.005 120.18 341.991 120.129 341.968 120.084C341.944 120.038 341.911 119.998 341.87 119.966C341.829 119.934 341.783 119.911 341.733 119.899C341.682 119.887 341.63 119.886 341.58 119.895C341.529 119.905 341.481 119.925 341.439 119.955C341.397 119.984 341.362 120.023 341.335 120.067C341.309 120.112 341.293 120.161 341.288 120.212C341.282 120.264 341.288 120.315 341.304 120.364L342.844 129.091C343.209 131.183 342.729 133.335 341.511 135.074C340.292 136.814 338.433 137.999 336.342 138.37L327.615 139.91C327.535 139.928 327.465 139.973 327.414 140.037C327.363 140.101 327.336 140.18 327.336 140.261C327.336 140.343 327.363 140.422 327.414 140.486C327.465 140.55 327.535 140.595 327.615 140.613C327.824 140.613 329.63 140.271 336.418 139.073C338.505 138.708 340.652 139.186 342.387 140.401C344.123 141.616 345.306 143.47 345.677 145.557L347.217 154.303C347.245 154.386 347.302 154.456 347.377 154.5C347.452 154.544 347.541 154.56 347.627 154.543C347.713 154.527 347.79 154.48 347.844 154.412C347.898 154.343 347.925 154.257 347.921 154.17L346.381 145.423C346.016 143.333 346.496 141.184 347.716 139.448C348.935 137.712 350.793 136.531 352.883 136.164L361.61 134.624C361.714 134.624 361.813 134.583 361.886 134.51C361.959 134.437 362 134.338 362 134.234C362 134.131 361.959 134.032 361.886 133.959C361.813 133.886 361.714 133.845 361.61 133.845ZM345.715 142.971C345.054 141.659 344.074 140.535 342.864 139.701C341.655 138.867 340.255 138.35 338.794 138.199C340.089 137.549 341.202 136.59 342.035 135.405C342.867 134.221 343.394 132.848 343.567 131.411C344.213 132.709 345.175 133.825 346.364 134.655C347.553 135.486 348.932 136.004 350.373 136.164C349.088 136.824 347.986 137.79 347.163 138.977C346.341 140.164 345.824 141.536 345.658 142.971H345.715Z" fill="#753EEC"/>
<path d="M297.916 224.423L230.876 251.954C230.799 251.996 230.741 252.066 230.711 252.148C230.682 252.231 230.683 252.322 230.716 252.404C230.749 252.485 230.81 252.552 230.888 252.592C230.967 252.632 231.057 252.641 231.142 252.619L293.315 227.085L215.038 272.469C214.997 272.493 214.961 272.524 214.932 272.562C214.903 272.6 214.882 272.643 214.869 272.688C214.857 272.734 214.854 272.782 214.86 272.829C214.866 272.877 214.881 272.922 214.905 272.963C214.929 273.004 214.96 273.041 214.998 273.069C215.036 273.098 215.079 273.12 215.125 273.132C215.171 273.144 215.218 273.148 215.266 273.142C215.313 273.135 215.358 273.12 215.399 273.096L293.657 227.712L196.9 302.947C196.834 302.989 196.785 303.052 196.76 303.125C196.736 303.199 196.736 303.279 196.763 303.352C196.79 303.425 196.84 303.487 196.906 303.527C196.973 303.567 197.051 303.584 197.128 303.574C197.318 303.574 192.051 307.624 298.258 225.05C298.601 224.651 298.22 224.309 297.916 224.423Z" fill="#753EEC"/>
<path d="M298.03 233.549C296.374 233.547 294.752 233.074 293.353 232.185C291.955 231.297 290.838 230.029 290.132 228.53C289.426 227.032 289.16 225.363 289.365 223.719C289.57 222.075 290.239 220.523 291.292 219.244C292.345 217.965 293.739 217.012 295.313 216.494C296.887 215.977 298.576 215.918 300.182 216.323C301.789 216.728 303.247 217.581 304.388 218.783C305.528 219.985 306.304 221.486 306.624 223.111C306.875 224.38 306.84 225.688 306.524 226.942C306.208 228.196 305.618 229.364 304.796 230.362C303.974 231.361 302.941 232.164 301.771 232.715C300.601 233.266 299.324 233.551 298.03 233.549ZM298.03 216.761C296.377 216.76 294.764 217.27 293.412 218.221C292.06 219.172 291.035 220.517 290.476 222.073C289.917 223.629 289.853 225.319 290.292 226.913C290.73 228.507 291.65 229.926 292.926 230.977C294.202 232.028 295.772 232.66 297.42 232.785C299.069 232.91 300.715 232.523 302.135 231.677C303.555 230.83 304.679 229.566 305.353 228.057C306.028 226.547 306.219 224.867 305.902 223.244C305.55 221.416 304.575 219.767 303.143 218.578C301.711 217.389 299.911 216.733 298.05 216.723L298.03 216.761Z" fill="#753EEC"/>
<path d="M282.972 145.423C282.972 145.832 282.81 146.223 282.521 146.512C282.232 146.801 281.84 146.963 281.432 146.963C281.024 146.963 280.632 146.801 280.343 146.512C280.054 146.223 279.892 145.832 279.892 145.423C279.892 145.015 280.054 144.623 280.343 144.334C280.632 144.045 281.024 143.883 281.432 143.883C281.84 143.883 282.232 144.045 282.521 144.334C282.81 144.623 282.972 145.015 282.972 145.423Z" fill="#000001"/>
<path d="M308.221 136.867C308.179 137.249 307.997 137.601 307.712 137.857C307.426 138.113 307.055 138.254 306.672 138.254C306.288 138.254 305.918 138.113 305.632 137.857C305.346 137.601 305.164 137.249 305.122 136.867C305.164 136.486 305.346 136.133 305.632 135.877C305.918 135.621 306.288 135.48 306.672 135.48C307.055 135.48 307.426 135.621 307.712 135.877C307.997 136.133 308.179 136.486 308.221 136.867Z" fill="#000001"/>
<path d="M318.279 109.47C318.237 109.851 318.056 110.203 317.77 110.459C317.484 110.715 317.114 110.857 316.73 110.857C316.346 110.857 315.976 110.715 315.69 110.459C315.404 110.203 315.223 109.851 315.18 109.47C315.223 109.088 315.404 108.736 315.69 108.48C315.976 108.224 316.346 108.083 316.73 108.083C317.114 108.083 317.484 108.224 317.77 108.48C318.056 108.736 318.237 109.088 318.279 109.47Z" fill="#000001"/>
<path d="M342.046 95.7801C342.003 96.1615 341.822 96.5139 341.536 96.7698C341.25 97.0258 340.88 97.1673 340.496 97.1673C340.112 97.1673 339.742 97.0258 339.456 96.7698C339.17 96.5139 338.989 96.1615 338.946 95.7801C338.989 95.3987 339.17 95.0463 339.456 94.7904C339.742 94.5345 340.112 94.3929 340.496 94.3929C340.88 94.3929 341.25 94.5345 341.536 94.7904C341.822 95.0463 342.003 95.3987 342.046 95.7801Z" fill="#000001"/>
<path d="M276.717 170.996C276.717 171.405 276.554 171.797 276.266 172.085C275.977 172.374 275.585 172.537 275.177 172.537C274.768 172.537 274.376 172.374 274.088 172.085C273.799 171.797 273.637 171.405 273.637 170.996C273.637 170.588 273.799 170.196 274.088 169.907C274.376 169.619 274.768 169.456 275.177 169.456C275.585 169.456 275.977 169.619 276.266 169.907C276.554 170.196 276.717 170.588 276.717 170.996Z" fill="#000001"/>
<path d="M249.661 161.755C249.619 162.136 249.437 162.489 249.151 162.745C248.865 163.001 248.495 163.142 248.111 163.142C247.728 163.142 247.358 163.001 247.072 162.745C246.786 162.489 246.604 162.136 246.562 161.755C246.604 161.374 246.786 161.021 247.072 160.765C247.358 160.509 247.728 160.368 248.111 160.368C248.495 160.368 248.865 160.509 249.151 160.765C249.437 161.021 249.619 161.374 249.661 161.755Z" fill="#000001"/>
<path d="M257.685 135.061C257.642 135.443 257.461 135.795 257.175 136.051C256.889 136.307 256.519 136.449 256.135 136.449C255.751 136.449 255.381 136.307 255.095 136.051C254.809 135.795 254.628 135.443 254.586 135.061C254.628 134.68 254.809 134.328 255.095 134.072C255.381 133.816 255.751 133.674 256.135 133.674C256.519 133.674 256.889 133.816 257.175 134.072C257.461 134.328 257.642 134.68 257.685 135.061Z" fill="#000001"/>
<path d="M250.65 107.169C250.608 107.55 250.426 107.902 250.14 108.158C249.854 108.414 249.484 108.556 249.1 108.556C248.717 108.556 248.346 108.414 248.06 108.158C247.775 107.902 247.593 107.55 247.551 107.169C247.593 106.787 247.775 106.435 248.06 106.179C248.346 105.923 248.717 105.781 249.1 105.781C249.484 105.781 249.854 105.923 250.14 106.179C250.426 106.435 250.608 106.787 250.65 107.169Z" fill="#000001"/>
<path d="M221.084 95.7802C221.084 96.1886 220.922 96.5803 220.633 96.8692C220.344 97.158 219.953 97.3202 219.544 97.3202C219.136 97.3202 218.744 97.158 218.455 96.8692C218.166 96.5803 218.004 96.1886 218.004 95.7802C218.004 95.3717 218.166 94.98 218.455 94.6912C218.744 94.4024 219.136 94.2401 219.544 94.2401C219.953 94.2401 220.344 94.4024 220.633 94.6912C220.922 94.98 221.084 95.3717 221.084 95.7802Z" fill="#000001"/>
<path d="M354.937 67.6407C354.556 67.5076 354.1 67.8308 353.682 68.3062C354.075 66.6052 354.336 64.8761 354.461 63.1346C354.613 61.0812 354.671 57.5828 353.454 57.4307C353.226 57.4307 352.636 57.2976 351.876 59.1228C351.971 57.7349 352.256 53.1908 350.887 52.9816C349.518 52.7725 348.548 57.4497 347.655 60.4157C347.655 58.9707 347.408 53.7421 345.906 53.6471C345.563 53.6471 344.575 53.6471 343.643 58.5715C343.193 61.0772 342.615 63.5585 341.913 66.0056L341.609 65.4542C338.871 60.6439 337.939 60.1686 337.312 60.3967C336.684 60.6249 336.304 61.5755 337.312 66.8612C338.452 72.5651 335.03 79.7711 334.269 81.2921L333.034 80.8168C332.959 80.79 332.878 80.7885 332.802 80.8125C332.726 80.8366 332.661 80.8849 332.615 80.9499C324.646 92.4364 316.026 103.457 306.796 113.957C306.491 114.299 307.024 114.774 307.347 114.413C316.55 103.956 325.145 92.9803 333.091 81.5393C338.815 83.523 343.651 87.4704 346.742 92.681C327.729 123.406 302.194 148.313 290.996 158.504C292.289 152.249 289.246 144.473 289.094 144.111C289.051 144.039 288.984 143.985 288.904 143.957C288.825 143.929 288.738 143.93 288.659 143.959C288.58 143.989 288.514 144.045 288.472 144.117C288.43 144.19 288.415 144.276 288.429 144.359C288.429 144.625 296.034 171.414 246.695 199.497C250.498 192.386 244.318 173.696 240.991 165.672C237.664 157.649 229.697 142.286 222.035 138.484H234.888C250.365 153.333 249.433 152.515 249.661 152.515C249.724 152.511 249.784 152.492 249.837 152.457C249.889 152.423 249.932 152.376 249.96 152.321C249.989 152.265 250.003 152.203 250.001 152.14C249.998 152.078 249.979 152.017 249.946 151.964L207.357 85.6461C213.898 87.9847 230.287 78.3641 231.18 71.5574C240.687 87.7566 265.879 127.304 281.033 138.407C281.994 139.189 283.117 139.748 284.32 140.044C285.523 140.34 286.777 140.365 287.992 140.119C288.077 140.089 288.149 140.032 288.197 139.956C288.246 139.88 288.267 139.79 288.258 139.7C288.06 138.313 288.06 136.905 288.258 135.517C293.962 136.582 296.072 132.456 296.034 126.619C296.034 126.524 295.996 126.432 295.928 126.364C295.861 126.296 295.769 126.258 295.673 126.258C295.577 126.258 295.485 126.296 295.417 126.364C295.35 126.432 295.312 126.524 295.312 126.619C295.312 130.65 294.361 133.255 292.441 134.358C289.265 136.259 284.417 133.35 284.246 133.255C284.191 133.221 284.129 133.203 284.065 133.201C284.001 133.199 283.937 133.215 283.881 133.246C283.825 133.277 283.778 133.322 283.746 133.377C283.713 133.432 283.695 133.495 283.695 133.559C283.695 133.749 283.505 133.407 287.402 138.541C287.402 138.845 287.402 139.168 287.497 139.491C283.904 140.157 281.28 137.856 278.561 135.441C281.413 135.327 279.892 128.521 279.189 125.745C279.173 125.674 279.135 125.61 279.08 125.562C279.025 125.514 278.957 125.485 278.884 125.479C273.39 121.41 276.66 116.352 279.379 119.375C280.31 120.421 280.995 120.82 281.546 120.706C282.098 120.592 282.459 119.661 282.421 119.451C281.109 110.991 289.246 105.192 293.239 114.907C293.282 114.984 293.351 115.043 293.434 115.072C293.517 115.102 293.608 115.1 293.689 115.067C293.771 115.035 293.838 114.973 293.877 114.895C293.917 114.816 293.927 114.726 293.905 114.641V114.489C294.213 114.188 294.558 113.926 294.931 113.709C294.968 113.783 295.029 113.842 295.104 113.876C295.178 113.911 295.262 113.919 295.342 113.899C295.422 113.879 295.493 113.832 295.543 113.767C295.592 113.701 295.618 113.621 295.616 113.538C294.798 69.0097 287.63 60.9101 284.588 59.4841C283.992 59.1971 283.325 59.0909 282.67 59.1788C282.014 59.2666 281.399 59.5446 280.9 59.9784C280.018 60.8522 279.322 61.8959 278.855 63.0462C278.387 64.1965 278.158 65.4296 278.181 66.671C273.561 53.2098 267.286 47.658 263.179 48.3804C259.776 48.9318 257.932 53.2668 258.141 60.3017C258.342 68.006 259.661 75.6403 262.058 82.9653C258.16 76.2156 254.795 73.1545 252.399 74.3143C248.596 76.2156 249.509 87.6235 254.053 97.13C266.355 122.855 278.485 124.243 279.493 133.255C279.36 134.168 279.055 134.472 278.884 134.567C278.713 134.662 277.667 134.567 276.793 133.692C261.335 118.862 241.828 88.1749 231.009 69.7322C230.731 69.2153 230.324 68.7791 229.828 68.4659C229.332 68.1527 228.763 67.9733 228.176 67.9449L227.91 67.3935C227.297 66.26 227.039 64.9678 227.171 63.6856C227.304 62.4034 227.82 61.191 228.652 60.2066C236.257 51.0233 234.926 49.5212 234.489 49.0269C232.036 46.346 225.324 54.4266 221.75 54.8639C220.894 54.978 219.849 51.6317 219.62 50.0346C219.62 50.0346 217.871 38.6267 217.719 37.9042C217.434 35.7557 216.73 32.2003 215.247 32.2003C213.764 32.2003 213.346 36.6304 213.346 38.3796C213.346 42.0871 213.346 45.0912 213.346 46.9925C211.958 42.6005 209.867 36.0409 209.677 35.3945C209.049 33.284 207.775 29.8047 206.254 30.1469C205.114 30.4131 204.771 32.8658 205.38 36.5543C206.083 40.7942 206.844 45.7186 207.281 48.6276C206.235 46.308 204.942 43.2279 203.611 39.5774C202.699 37.0867 201.33 34.1967 200.018 34.5579C198.402 34.9952 199.143 39.6154 199.41 41.0224C199.809 43.2279 200.779 47.8481 201.577 50.8902C200.76 49.4072 199.904 47.715 199.124 45.8897C198.079 43.4561 196.577 40.6231 195.322 41.0414C193.706 41.5928 194.751 46.346 195.113 47.791C196.386 52.8866 197.413 55.2632 200.037 64.5606C201.67 69.9526 203.658 75.2308 205.988 80.3605C204.486 83.3455 205.988 84.5053 205.988 84.7335L239.926 137.78C216.141 137.78 219.887 137.647 217.985 138.046C215.19 139.225 214.183 143.978 215.247 151.355L163.912 159.949C133.339 94.2971 135.545 98.7842 135.183 98.8412C133.852 98.8412 132.617 99.0313 131.381 99.1835C129.213 94.7534 129.384 88.6122 120.144 84.3913C110.904 80.1704 96.929 61.5755 94.058 67.0703C92.613 69.8272 109.268 100.838 111.17 106.599C109.953 107.416 108.774 108.291 107.671 109.203C107.617 109.249 107.578 109.309 107.557 109.376C107.537 109.444 107.537 109.516 107.557 109.584C114.44 132.57 121.722 155.595 129.479 178.183C96.91 163.315 98.8493 164.075 98.5831 164.322C97.8416 165.026 97.1001 165.767 96.3966 166.528C91.7954 164.265 88.278 159.436 78.4102 161.756C68.5424 164.075 47.0386 157.953 47.2097 164.094C47.3048 167.897 82.7262 182.005 86.1486 184.229C85.7113 185.674 85.312 187.119 84.9888 188.545C84.9746 188.612 84.9796 188.681 85.0032 188.745C85.0267 188.809 85.0679 188.865 85.1219 188.906C107.67 206.541 131.784 222.077 157.162 235.317C160.232 236.963 163.635 237.893 167.115 238.038C170.595 238.183 174.063 237.539 177.259 236.154C199.715 226.624 221.188 214.926 241.371 201.227C242.127 201.599 242.974 201.744 243.81 201.647C244.647 201.549 245.437 201.212 246.087 200.675C270.652 186.891 281.318 173.449 285.919 163.942C304.932 147.952 330.98 119.565 347.503 92.8331C347.539 92.7797 347.558 92.7168 347.558 92.6524C347.558 92.5881 347.539 92.5252 347.503 92.4718C347.215 91.9286 346.898 91.4017 346.552 90.8937C347.484 89.3537 353.549 79.0866 355.07 72.0327C355.906 68.4583 355.45 67.7928 354.937 67.6407ZM206.083 36.4782C205.437 32.5235 206.083 31.0025 206.425 30.9074C206.768 30.8123 207.775 31.5919 208.992 35.6607C209.182 36.2881 213.745 50.7 213.86 51.0423C212.331 51.673 210.866 52.4498 209.487 53.3619C209.334 52.9436 209.639 53.7612 208.346 51.0233C208.251 50.3198 207.11 42.6955 206.083 36.4782ZM200.113 40.9463C199.353 36.9536 199.866 35.3945 200.113 35.2424C200.36 35.0903 201.387 35.8698 202.851 39.8246C204.568 44.5213 206.536 49.1228 208.745 53.6091C207.478 54.5234 206.289 55.5409 205.19 56.6511C204.309 55.5623 203.527 54.398 202.851 53.1718C201.709 49.1513 200.795 45.0697 200.113 40.9463ZM200.702 64.4275C198.117 55.2061 197.109 53.0196 195.797 47.677C194.77 43.5511 195.189 41.973 195.531 41.7829C195.873 41.5928 196.824 42.3723 198.459 46.232C200.161 50.1629 202.305 53.888 204.847 57.3356C203.707 58.5334 202.604 59.8644 201.463 61.3284C201.159 61.6896 201.729 62.1269 202.014 61.7657C206.197 56.404 209.943 52.8866 216.712 50.7571C216.762 50.7489 216.811 50.7299 216.854 50.7013C216.897 50.6728 216.933 50.6353 216.961 50.5915C216.988 50.5477 217.006 50.4986 217.012 50.4474C217.019 50.3962 217.015 50.3442 217 50.2948C216.985 50.2455 216.959 50.1999 216.925 50.1613C216.891 50.1226 216.849 50.0917 216.802 50.0706C216.754 50.0495 216.703 50.0388 216.652 50.0392C216.6 50.0395 216.549 50.0509 216.502 50.0726C215.818 50.2818 215.152 50.5099 214.601 50.7571L214.145 49.3311C214.145 48.7607 214.145 44.5968 214.145 38.4366C214.145 34.4058 214.981 32.9988 215.362 32.9798C215.742 32.9608 216.578 33.8925 217.149 38.0753C217.244 38.7598 219.05 50.2057 219.05 50.2057C219.05 50.2057 220.02 55.9096 221.978 55.6625C225.515 55.2061 232.302 47.658 234.089 49.5783C234.413 49.9395 234.964 51.7458 228.233 59.8263C227.314 60.9226 226.744 62.2698 226.598 63.6935C226.452 65.1172 226.737 66.5519 227.416 67.8118C227.416 68.021 229.907 72.8123 230.097 73.1545C227.226 78.8584 216.141 85.475 209.544 85.2659C205.848 78.6617 202.883 71.6743 200.702 64.4275ZM134.993 99.5637C158.208 149.454 162.524 158.885 163.513 160.539C163.703 160.9 163.513 160.843 164.102 160.767L231.656 149.359C235.763 155.718 239.173 162.5 241.828 169.589L168.152 181.605C164.542 182.197 160.838 181.513 157.677 179.671C154.516 177.829 152.095 174.943 150.831 171.509L124.916 101.161C128.213 100.29 131.589 99.7549 134.993 99.5637ZM94.7805 67.4126C97.005 63.1346 110.904 80.9119 119.916 85.0377C128.928 89.1635 128.491 94.5443 130.658 99.2785C123.946 100.15 117.51 102.501 111.816 106.161C109.858 100.59 93.6397 69.5801 94.7805 67.4126ZM47.8942 164.075C47.7801 159.17 68.9227 164.741 78.5623 162.459C87.8978 160.254 91.2251 164.722 95.8643 167.079C91.5846 171.847 88.3467 177.455 86.3577 183.545C82.5741 181.282 48.0083 167.174 47.8942 164.075ZM176.974 235.45C173.879 236.795 170.52 237.422 167.148 237.283C163.776 237.145 160.479 236.245 157.505 234.652C132.233 221.462 108.215 205.998 85.7493 188.45C87.6992 179.526 92.2826 171.392 98.9064 165.102L129.784 179.21L135.488 195.276C137.218 200.143 140.519 204.297 144.87 207.082C149.221 209.867 154.375 211.125 159.52 210.657C188.667 207.976 211.654 203.755 231.865 197.348C231.944 197.311 232.007 197.247 232.043 197.168C232.079 197.088 232.084 196.998 232.059 196.915C232.033 196.831 231.978 196.76 231.904 196.714C231.83 196.668 231.742 196.65 231.656 196.664C211.483 203.014 188.553 207.216 159.406 209.973C154.406 210.416 149.402 209.179 145.183 206.459C140.965 203.738 137.774 199.69 136.115 194.952C126.608 168.125 118.68 144.701 108.356 109.603C113.002 105.792 118.388 102.989 124.175 101.37L150.109 171.718C151.275 174.88 153.381 177.608 156.145 179.535C158.909 181.463 162.197 182.497 165.566 182.499C167.468 182.499 161.193 183.43 242.018 170.235C245.973 180.788 247.893 190.732 246.98 196.416C225.139 211.944 201.664 225.033 176.974 235.45ZM351.514 62.6783C352.56 58.3053 353.416 58.0581 353.416 58.0581C353.416 58.0581 354.1 59.1989 353.834 63.0586C353.494 66.9743 352.578 70.8184 351.115 74.4664C350.793 73.162 350.354 71.8893 349.803 70.6638C350.557 68.0576 351.129 65.402 351.514 62.7163V62.6783ZM349.138 57.7159C350.107 53.9133 350.773 53.6091 350.773 53.6091C350.773 53.6091 351.4 54.7689 351.21 58.2673C351.016 62.1303 350.379 65.9581 349.309 69.6751C348.724 68.4634 348.024 67.3109 347.217 66.2337C347.439 65.0863 347.566 63.9226 347.598 62.7543C348.13 61.3854 348.643 59.6552 349.138 57.7539V57.7159ZM354.366 71.9377C352.94 78.5542 347.408 88.0988 346.096 90.3043C343.268 86.4198 339.427 83.3876 334.992 81.5393C335.848 79.8661 339.289 72.6221 338.091 66.671C337.083 61.7467 337.502 61.1002 337.559 60.9671C337.616 60.834 338.433 61.1953 340.981 65.6824C343.529 70.1695 344.993 80.7788 345.012 80.8928C345.012 81.3872 345.772 81.2351 345.715 80.8928C345.081 76.1511 343.959 71.4872 342.369 66.9753C343.16 64.2504 343.795 61.4827 344.27 58.6855C344.917 55.2061 345.601 54.3696 345.772 54.3506C345.943 54.3315 346.495 54.6358 346.799 59.1419C346.922 61.3054 346.846 63.4758 346.571 65.6253C346.312 65.3092 346.033 65.0107 345.734 64.7317C345.392 64.4085 344.898 64.9409 345.24 65.2451C348.245 68.5275 350.164 72.6575 350.735 77.0712C350.735 77.167 350.773 77.2589 350.841 77.3267C350.908 77.3944 351 77.4325 351.096 77.4325C351.192 77.4325 351.284 77.3944 351.352 77.3267C351.419 77.2589 351.457 77.167 351.457 77.0712C351.248 75.5502 351.153 76.1015 351.457 75.1699C351.762 74.2383 352.446 72.5461 352.978 70.6828C353.315 69.7916 353.863 68.9955 354.575 68.3632C354.575 68.3632 355.07 68.7435 354.366 71.9377Z" fill="#000001"/>
<path d="M308.545 116.523C308.446 115.788 308.199 115.08 307.819 114.442C307.438 113.805 306.932 113.251 306.331 112.816C305.73 112.38 305.046 112.071 304.322 111.908C303.598 111.744 302.848 111.73 302.118 111.865C340.81 72.3181 272.249 39.8437 311.853 0.619671C311.921 0.551596 311.959 0.459267 311.959 0.362994C311.959 0.266722 311.921 0.174392 311.853 0.106317C311.785 0.038242 311.693 5.69328e-09 311.596 0C311.5 -5.69327e-09 311.408 0.038242 311.34 0.106317C271.051 40.0338 340.62 72.6983 300.939 112.093L288.847 113.995C287.629 114.182 286.51 114.773 285.669 115.673C284.827 116.573 284.313 117.73 284.208 118.957C268.864 120.858 269.739 120.725 269.549 120.973C269.359 121.22 270.043 121.543 274.473 126.315C274.72 126.543 274.169 126.486 285.102 125.174C285.489 126.22 286.186 127.123 287.1 127.761C288.014 128.4 289.101 128.745 290.216 128.749C290.786 128.749 289.855 128.749 304.514 126.657C305.951 126.432 307.241 125.649 308.102 124.477C308.964 123.306 309.328 121.841 309.115 120.402L308.545 116.523ZM304.4 125.859L298.696 126.734C298.067 126.844 297.421 126.827 296.799 126.683C296.176 126.539 295.589 126.27 295.073 125.894C294.556 125.518 294.121 125.041 293.793 124.493C293.465 123.945 293.251 123.336 293.163 122.703C292.593 118.9 292.384 118.235 292.688 116.999C292.922 116.088 293.417 115.266 294.114 114.634C294.81 114.003 295.676 113.588 296.604 113.443L302.308 112.588C302.927 112.494 303.558 112.523 304.165 112.674C304.772 112.825 305.343 113.095 305.845 113.468C306.347 113.841 306.77 114.31 307.09 114.847C307.41 115.385 307.62 115.98 307.708 116.6L308.259 120.402C308.464 121.637 308.173 122.902 307.451 123.923C306.728 124.945 305.632 125.641 304.4 125.859Z" fill="#753EEC"/>
</svg>
