<svg width="156" height="28" viewBox="0 0 156 28" fill="none" xmlns="http://www.w3.org/2000/svg">
<path d="M11.5124 11.6005L20.2205 0.554199H15.2302L6.77664 11.0888C6.09637 11.9169 5.24641 13.0592 4.22676 14.5155V0.554199H0V24.1768H4.22677V20.0934L8.85316 14.5155L16.1768 24.1768H21.1315L11.5124 11.6005Z" fill="#7E3AF5"/>
<path d="M70.4188 10.9294V14.4656H74.755V17.8327C74.0374 18.7562 73.1128 19.498 72.0559 19.9982C70.999 20.4983 69.8393 20.7429 68.6705 20.7121C67.5955 20.735 66.528 20.5291 65.5385 20.1082C64.5491 19.6873 63.6603 19.061 62.9309 18.2706C62.1759 17.4867 61.5829 16.5616 61.1857 15.5481C60.7886 14.5346 60.5952 13.4527 60.6166 12.3643C60.5954 11.2764 60.7889 10.1949 61.1861 9.18182C61.5832 8.16876 62.1761 7.244 62.9309 6.46048C63.6603 5.67012 64.5491 5.04376 65.5385 4.62286C66.528 4.20196 67.5956 3.99612 68.6705 4.01897C70.6846 3.95913 72.652 4.63214 74.2079 5.91315L76.7221 3.03379C74.4472 1.15746 71.5805 0.149768 68.6324 0.190132C65.086 0.190132 62.1286 1.36884 59.7603 3.72627C58.6085 4.84596 57.699 6.19047 57.0881 7.67638C56.4772 9.1623 56.178 10.7579 56.209 12.3643C56.1743 13.9744 56.4717 15.5744 57.0827 17.0643C57.6938 18.5542 58.6052 19.9021 59.7603 21.0238C62.1294 23.3678 65.0867 24.5401 68.6324 24.5409C70.6811 24.5613 72.7051 24.0922 74.5361 23.1726C76.2676 22.319 77.7491 21.0321 78.8366 19.4366V10.9294H70.4188Z" fill="#7E3AF5"/>
<path d="M88.2134 6.93399C87.2089 7.61504 86.4291 8.57905 85.9727 9.70389V6.13205H81.9268V24.1768H85.9727V16.8118C85.9727 12.7998 87.7638 10.6066 91.3459 10.2322V5.82983C90.2232 5.91741 89.143 6.29813 88.2134 6.93399Z" fill="#7E3AF5"/>
<path d="M51.2517 6.13208L47.3531 15.5721L46.1877 18.599L45.0197 15.7553L40.6859 6.13208H36.5305L44.3276 22.4254C44.3527 22.6527 44.322 22.8826 44.2383 23.0953C44.1546 23.308 44.0203 23.4971 43.8471 23.6462C43.1034 24.0809 42.2473 24.2847 41.3876 24.2316V27.8082C44.7866 27.8082 45.7619 28.0152 47.0986 24.9788L55.331 6.13208H51.2517Z" fill="#7E3AF5"/>
<path d="M37.3491 16.7713L33.4815 17.9564C32.5848 19.7935 31.3455 20.4574 30.0468 20.731C27.5945 21.245 26.1626 20.2527 25.7487 19.941C25.1199 19.473 24.6146 18.8588 24.2764 18.1515V18.1491L37.2992 14.1894C37.1192 12.1686 36.2598 10.2686 34.8611 8.79955C34.1049 7.94846 33.1748 7.26984 32.1337 6.80961C31.0926 6.34938 29.9648 6.11829 28.8266 6.13198C27.618 6.10878 26.4177 6.33709 25.3019 6.80244C24.1862 7.26779 23.1792 7.96002 22.3449 8.83523C21.4861 9.69074 20.8088 10.7109 20.3535 11.8345C19.8982 12.9582 19.6743 14.1622 19.6952 15.3745C19.6768 16.6259 19.9154 17.8679 20.3961 19.0233C20.8769 20.1788 21.5895 21.2233 22.49 22.0922C24.0236 23.5743 26.0469 24.4429 28.1773 24.5337C28.5364 24.5527 32.5824 24.7478 35.1489 21.9637C36.5021 20.5667 37.2865 18.7156 37.3491 16.7713ZM25.5323 10.7699C26.3811 10.0164 27.4777 9.6021 28.6125 9.60625C29.7934 9.58411 30.9409 9.99842 31.8355 10.7699C32.2765 11.1424 32.6436 11.5944 32.9178 12.1025L23.6936 14.7582C23.6968 14.0004 23.8627 13.2523 24.1799 12.5642C24.4971 11.8761 24.9583 11.2642 25.5323 10.7699Z" fill="#7E3AF5"/>
<path d="M108.189 8.51892C106.373 6.75484 103.942 5.76807 101.411 5.76807C98.8799 5.76807 96.4486 6.75484 94.633 8.51892L94.4903 8.66169C93.6307 9.5113 92.9519 10.5261 92.4944 11.6449C92.037 12.7638 91.8106 13.9637 91.8286 15.1724C91.813 16.4092 92.0542 17.6358 92.5369 18.7745C93.0196 19.9132 93.7334 20.9393 94.633 21.7878C96.4479 23.5533 98.8794 24.541 101.411 24.541C103.942 24.541 106.374 23.5533 108.189 21.7878C109.076 20.9259 109.781 19.8946 110.263 18.755C110.745 17.6154 110.993 16.3907 110.993 15.1533C110.993 13.916 110.745 12.6913 110.263 11.5517C109.781 10.4121 109.076 9.38082 108.189 8.51892ZM105.272 19.0536C104.243 20.074 102.85 20.6443 101.401 20.6392C99.9516 20.6341 98.5633 20.054 97.5408 19.0263C96.5182 17.9986 95.9448 16.6071 95.9464 15.157C95.948 13.7069 96.5244 12.3167 97.5492 11.2912C98.0526 10.7773 98.6535 10.3691 99.3166 10.0905C99.9796 9.81181 100.692 9.66827 101.411 9.66827C102.13 9.66827 102.842 9.81181 103.505 10.0905C104.168 10.3691 104.769 10.7773 105.272 11.2912C105.789 11.7957 106.197 12.3999 106.472 13.0671C106.748 13.7343 106.885 14.4505 106.876 15.1724C106.89 15.8948 106.755 16.6125 106.479 17.2803C106.203 17.9481 105.792 18.5518 105.272 19.0536Z" fill="#7E3AF5"/>
<path d="M125.176 6.13208V15.4269C125.176 17.1046 124.788 18.3927 124.011 19.2914C123.612 19.7422 123.116 20.0975 122.561 20.3311C122.006 20.5646 121.406 20.6704 120.805 20.6407C119.42 20.6407 118.436 20.2576 117.853 19.4913C117.27 18.7251 116.978 17.5646 116.977 16.0099V6.13208H112.934V16.7405C112.934 18.975 113.462 20.8335 114.518 22.316C115.574 23.7985 117.268 24.5401 119.601 24.5409C120.699 24.5781 121.788 24.333 122.764 23.8289C123.74 23.3247 124.571 22.5785 125.176 21.6616V24.1768H129.22V6.13208H125.176Z" fill="#7E3AF5"/>
<path d="M147.869 8.48302C147.118 7.60434 146.18 6.90458 145.124 6.43483C144.068 5.96509 142.92 5.73722 141.765 5.76786C140.636 5.76425 139.525 6.05279 138.54 6.60549C137.529 7.1691 136.681 7.9858 136.08 8.97561V6.13194H132.037V27.2655H136.08V21.3687C136.671 22.3458 137.506 23.1522 138.503 23.7084C139.499 24.2646 140.624 24.5515 141.765 24.5408C142.92 24.5709 144.068 24.3428 145.123 23.8731C146.179 23.4034 147.117 22.7039 147.869 21.8256C149.47 19.986 150.322 17.6109 150.254 15.1722C150.326 12.722 149.475 10.3343 147.869 8.48302ZM144.717 19.0914C144.258 19.5981 143.694 19.999 143.065 20.2664C142.436 20.5339 141.756 20.6615 141.073 20.6406C140.398 20.6602 139.727 20.5316 139.107 20.264C138.487 19.9964 137.933 19.5961 137.484 19.0914C136.531 18.013 136.029 16.6102 136.08 15.1721C136.031 13.7295 136.533 12.3222 137.484 11.2362C137.929 10.7264 138.482 10.3214 139.103 10.0503C139.723 9.77925 140.396 9.6487 141.073 9.66805C141.758 9.64728 142.439 9.77692 143.069 10.0478C143.698 10.3188 144.261 10.7244 144.717 11.2362C145.678 12.3174 146.186 13.7265 146.137 15.1721C146.188 16.6131 145.679 18.0179 144.717 19.0914Z" fill="#7E3AF5"/>
<path d="M154.334 6.43498C154.683 6.63181 154.97 6.91979 155.167 7.26797C155.367 7.62894 155.471 8.03496 155.47 8.44752C155.469 8.86008 155.362 9.26551 155.161 9.62536C154.96 9.97742 154.669 10.2695 154.318 10.4715C153.959 10.6744 153.554 10.781 153.142 10.781C152.729 10.781 152.324 10.6744 151.965 10.4715C151.616 10.2699 151.328 9.97896 151.129 9.62866C150.928 9.27062 150.823 8.86702 150.823 8.45655C150.823 8.04607 150.928 7.64247 151.129 7.28443C151.328 6.93351 151.618 6.64246 151.968 6.44157C152.33 6.23974 152.737 6.13324 153.151 6.13209C153.564 6.13094 153.972 6.23517 154.334 6.43498H154.334ZM154.13 10.1554C154.423 9.98346 154.665 9.73694 154.831 9.44098C154.999 9.13652 155.087 8.79493 155.088 8.4475C155.089 8.10008 155.003 7.75792 154.838 7.45235C154.675 7.16028 154.436 6.91788 154.147 6.75105C153.842 6.58206 153.498 6.49368 153.149 6.49425C152.8 6.49483 152.457 6.58434 152.153 6.75435C151.859 6.9226 151.617 7.16723 151.452 7.46223C151.285 7.76724 151.198 8.10911 151.198 8.45654C151.198 8.80397 151.285 9.14585 151.452 9.45086C151.616 9.74524 151.857 9.98977 152.149 10.1587C152.452 10.3298 152.793 10.4194 153.14 10.4188C153.488 10.4183 153.829 10.3275 154.13 10.1554H154.13ZM154.139 8.54777C154.052 8.67671 153.928 8.77634 153.783 8.8336L154.318 9.65461H153.796L153.321 8.92482H152.78V9.65461H152.258V7.25846H153.255C153.52 7.24359 153.781 7.32334 153.993 7.48349C154.082 7.55718 154.153 7.6504 154.199 7.75588C154.246 7.86137 154.268 7.97627 154.264 8.09163C154.268 8.25269 154.225 8.41153 154.139 8.54775V8.54777ZM153.224 8.51736C153.365 8.52623 153.504 8.48652 153.619 8.40485C153.666 8.36729 153.702 8.31936 153.727 8.26495C153.751 8.21054 153.762 8.15117 153.759 8.09165C153.762 8.03255 153.751 7.97355 153.727 7.9196C153.702 7.86564 153.666 7.81829 153.619 7.78149C153.503 7.70182 153.364 7.66328 153.224 7.67203H152.774V8.51734L153.224 8.51736Z" fill="#7E3AF5"/>
</svg>
