<svg width="16" height="16" viewBox="0 0 16 16" fill="none" xmlns="http://www.w3.org/2000/svg">
<path d="M8.252 0.25C10.31 0.255827 12.2815 1.07784 13.7341 2.53567C15.1867 3.99349 16.0016 5.96804 16 8.026C15.9931 10.0372 15.2046 11.9669 13.8012 13.4074C12.3978 14.848 10.4893 15.6866 8.479 15.746L8.233 15.75C6.22144 15.7457 4.29035 14.9595 2.84786 13.5575C1.40537 12.1556 0.56451 10.2476 0.503 8.237L0.5 7.992C0.502121 5.93761 1.31985 3.96812 2.77346 2.51639C4.22707 1.06465 6.19761 0.249469 8.252 0.25ZM10.201 8.75H6.298C6.453 11.647 7.474 14.093 8.184 14.243L8.252 14.25C8.932 14.248 9.972 11.885 10.184 9.02L10.201 8.75ZM14.456 8.75H11.704C11.613 10.71 11.174 12.533 10.516 13.826C11.5309 13.4306 12.425 12.7771 13.1099 11.9302C13.7948 11.0832 14.2467 10.0722 14.421 8.997L14.456 8.75ZM4.795 8.75H2.045C2.18102 9.87243 2.61864 10.937 3.31134 11.8306C4.00404 12.7242 4.92592 13.4134 5.979 13.825C5.364 12.617 4.943 10.95 4.817 9.139L4.795 8.749V8.75ZM5.983 2.174L5.868 2.22C4.84179 2.64383 3.94685 3.33309 3.27501 4.21704C2.60318 5.10099 2.17865 6.14779 2.045 7.25H4.795C4.88 5.42 5.266 3.71 5.854 2.44L5.983 2.174ZM8.245 1.75C7.543 1.752 6.461 4.262 6.298 7.25H10.202C10.046 4.347 9.024 1.907 8.31 1.756L8.245 1.749V1.75ZM10.525 2.182L10.548 2.232C11.191 3.52 11.617 5.316 11.705 7.25H14.453C14.3144 6.13 13.8762 5.06812 13.1848 4.17621C12.4933 3.2843 11.5741 2.59538 10.524 2.182H10.525Z" fill="black"/>
</svg>
